<svg width="102" height="30" viewBox="0 0 102 30" fill="none" xmlns="http://www.w3.org/2000/svg">
<g clip-path="url(#clip0_673_46936)">
<path d="M17.2578 8.84766C17.7432 8.84766 18.1367 8.45416 18.1367 7.96875C18.1367 7.48334 17.7432 7.08984 17.2578 7.08984C16.7724 7.08984 16.3789 7.48334 16.3789 7.96875C16.3789 8.45416 16.7724 8.84766 17.2578 8.84766Z" fill="#00730C"/>
<path d="M20.7734 8.84766C21.2588 8.84766 21.6523 8.45416 21.6523 7.96875C21.6523 7.48334 21.2588 7.08984 20.7734 7.08984C20.288 7.08984 19.8945 7.48334 19.8945 7.96875C19.8945 8.45416 20.288 8.84766 20.7734 8.84766Z" fill="#00730C"/>
<path d="M24.2891 8.84766C24.7745 8.84766 25.168 8.45416 25.168 7.96875C25.168 7.48334 24.7745 7.08984 24.2891 7.08984C23.8037 7.08984 23.4102 7.48334 23.4102 7.96875C23.4102 8.45416 23.8037 8.84766 24.2891 8.84766Z" fill="#00730C"/>
<path d="M20.2586 28.1836C21.7055 28.1836 22.8828 27.0008 22.8828 25.5469V22.0312C22.8828 21.6531 22.641 21.3175 22.2825 21.1976L17.0215 19.4398C16.7639 19.3538 16.4813 19.3916 16.2554 19.5421L14.0182 21.0336C11.6171 19.8943 8.77924 17.0816 7.65049 14.7232L9.14147 12.4867C9.29199 12.2609 9.32979 11.9781 9.24377 11.7207L7.48596 6.45973C7.36613 6.10113 7.03045 5.85938 6.65234 5.85938H3.13672C1.68283 5.85938 0.5 7.03658 0.5 8.48361C0.5 13.3397 2.70805 18.3236 6.55801 22.1575C10.4038 25.9871 15.3975 28.1836 20.2586 28.1836ZM3.13672 7.61719H6.01936L7.44025 11.8697L5.92109 14.1484C5.76055 14.3892 5.72885 14.6936 5.83637 14.9623C6.42084 16.4235 7.59049 18.0669 9.1298 19.5898C10.659 21.1026 12.3104 22.2595 13.7799 22.8472C14.0485 22.9547 14.353 22.923 14.5938 22.7625L16.8726 21.2433L21.125 22.6642V25.5469C21.125 26.0397 20.7444 26.4258 20.2586 26.4258C11.0059 26.4258 2.25781 17.7062 2.25781 8.48361C2.25781 7.99775 2.64389 7.61719 3.13672 7.61719Z" fill="#00730C"/>
<path d="M16.9215 17.5698C17.2498 17.7059 17.6279 17.6306 17.8793 17.3793L21.1375 14.1211H24.2891C27.7138 14.1211 30.5 11.3612 30.5 7.96875C30.5 4.57635 27.7138 1.81641 24.2891 1.81641H17.2578C13.8654 1.81641 11.1055 4.57635 11.1055 7.96875C11.1055 11.0628 13.4013 13.6307 16.3789 14.0585V16.7578C16.3789 17.1133 16.5931 17.4337 16.9215 17.5698ZM12.8633 7.96875C12.8633 5.54561 14.8347 3.57422 17.2578 3.57422H24.2891C26.7445 3.57422 28.7422 5.54561 28.7422 7.96875C28.7422 10.3919 26.7445 12.3633 24.2891 12.3633H20.7734C20.5403 12.3633 20.3168 12.4559 20.152 12.6207L18.1367 14.636V13.2422C18.1367 12.7568 17.7432 12.3633 17.2578 12.3633C14.8347 12.3633 12.8633 10.3919 12.8633 7.96875Z" fill="#00730C"/>
</g>
<path d="M47.79 21.18C46.47 21.18 45.336 20.916 44.388 20.388C43.452 19.848 42.732 19.092 42.228 18.12C41.724 17.136 41.472 15.978 41.472 14.646C41.472 13.314 41.724 12.162 42.228 11.19C42.732 10.218 43.452 9.468 44.388 8.94C45.336 8.4 46.47 8.13 47.79 8.13C48.45 8.13 49.098 8.214 49.734 8.382C50.37 8.55 50.928 8.79 51.408 9.102C51.72 9.306 51.906 9.552 51.966 9.84C52.026 10.116 51.99 10.374 51.858 10.614C51.726 10.842 51.528 10.998 51.264 11.082C51 11.154 50.706 11.082 50.382 10.866C50.01 10.626 49.608 10.452 49.176 10.344C48.744 10.236 48.306 10.182 47.862 10.182C46.578 10.182 45.6 10.572 44.928 11.352C44.256 12.12 43.92 13.218 43.92 14.646C43.92 16.074 44.256 17.178 44.928 17.958C45.6 18.738 46.578 19.128 47.862 19.128C48.318 19.128 48.768 19.074 49.212 18.966C49.656 18.846 50.076 18.666 50.472 18.426C50.796 18.222 51.084 18.156 51.336 18.228C51.588 18.3 51.774 18.45 51.894 18.678C52.026 18.894 52.068 19.134 52.02 19.398C51.972 19.662 51.81 19.896 51.534 20.1C51.054 20.448 50.478 20.718 49.806 20.91C49.146 21.09 48.474 21.18 47.79 21.18ZM56.486 21.18C55.85 21.18 55.28 21.06 54.776 20.82C54.284 20.568 53.894 20.232 53.606 19.812C53.33 19.392 53.192 18.918 53.192 18.39C53.192 17.742 53.36 17.232 53.696 16.86C54.032 16.476 54.578 16.2 55.334 16.032C56.09 15.864 57.104 15.78 58.376 15.78H59.006V15.402C59.006 14.802 58.874 14.37 58.61 14.106C58.346 13.842 57.902 13.71 57.278 13.71C56.93 13.71 56.552 13.752 56.144 13.836C55.748 13.92 55.328 14.064 54.884 14.268C54.596 14.4 54.356 14.418 54.164 14.322C53.972 14.214 53.84 14.052 53.768 13.836C53.708 13.608 53.72 13.38 53.804 13.152C53.9 12.924 54.086 12.756 54.362 12.648C54.914 12.42 55.442 12.258 55.946 12.162C56.462 12.066 56.93 12.018 57.35 12.018C58.634 12.018 59.588 12.318 60.212 12.918C60.836 13.506 61.148 14.424 61.148 15.672V19.992C61.148 20.76 60.8 21.144 60.104 21.144C59.396 21.144 59.042 20.76 59.042 19.992V19.596C58.838 20.088 58.514 20.478 58.07 20.766C57.626 21.042 57.098 21.18 56.486 21.18ZM56.954 19.632C57.542 19.632 58.028 19.428 58.412 19.02C58.808 18.612 59.006 18.096 59.006 17.472V17.076H58.394C57.266 17.076 56.48 17.166 56.036 17.346C55.604 17.514 55.388 17.826 55.388 18.282C55.388 18.678 55.526 19.002 55.802 19.254C56.078 19.506 56.462 19.632 56.954 19.632ZM66.4377 21.18C64.4337 21.18 63.4317 20.058 63.4317 17.814V9.3C63.4317 8.544 63.8037 8.166 64.5477 8.166C65.3037 8.166 65.6817 8.544 65.6817 9.3V17.706C65.6817 18.786 66.1317 19.326 67.0317 19.326C67.1277 19.326 67.2177 19.326 67.3017 19.326C67.3857 19.314 67.4697 19.302 67.5537 19.29C67.7217 19.266 67.8357 19.314 67.8957 19.434C67.9557 19.542 67.9857 19.77 67.9857 20.118C67.9857 20.418 67.9257 20.652 67.8057 20.82C67.6857 20.988 67.4877 21.09 67.2117 21.126C66.9597 21.162 66.7017 21.18 66.4377 21.18ZM72.1858 21.18C70.1818 21.18 69.1798 20.058 69.1798 17.814V9.3C69.1798 8.544 69.5518 8.166 70.2958 8.166C71.0518 8.166 71.4298 8.544 71.4298 9.3V17.706C71.4298 18.786 71.8798 19.326 72.7798 19.326C72.8758 19.326 72.9658 19.326 73.0498 19.326C73.1338 19.314 73.2178 19.302 73.3018 19.29C73.4698 19.266 73.5838 19.314 73.6438 19.434C73.7038 19.542 73.7338 19.77 73.7338 20.118C73.7338 20.418 73.6738 20.652 73.5538 20.82C73.4338 20.988 73.2358 21.09 72.9598 21.126C72.7078 21.162 72.4498 21.18 72.1858 21.18ZM85.3045 21.18C83.5645 21.18 82.2325 20.73 81.3085 19.83C80.3965 18.918 79.9405 17.574 79.9405 15.798V9.336C79.9405 8.556 80.3245 8.166 81.0925 8.166C81.8605 8.166 82.2445 8.556 82.2445 9.336V15.78C82.2445 16.92 82.5025 17.778 83.0185 18.354C83.5465 18.918 84.3085 19.2 85.3045 19.2C87.3325 19.2 88.3465 18.06 88.3465 15.78V9.336C88.3465 8.556 88.7305 8.166 89.4985 8.166C90.2545 8.166 90.6325 8.556 90.6325 9.336V15.798C90.6325 17.574 90.1825 18.918 89.2825 19.83C88.3825 20.73 87.0565 21.18 85.3045 21.18ZM96.3256 21.18C95.8096 21.18 95.2636 21.126 94.6876 21.018C94.1116 20.91 93.5956 20.724 93.1396 20.46C92.8876 20.316 92.7316 20.142 92.6716 19.938C92.6116 19.722 92.6176 19.524 92.6896 19.344C92.7736 19.152 92.9056 19.014 93.0856 18.93C93.2776 18.846 93.4996 18.864 93.7516 18.984C94.2316 19.212 94.6816 19.374 95.1016 19.47C95.5216 19.554 95.9356 19.596 96.3436 19.596C96.9196 19.596 97.3456 19.5 97.6216 19.308C97.9096 19.104 98.0536 18.84 98.0536 18.516C98.0536 18.012 97.6816 17.688 96.9376 17.544L95.1376 17.202C93.6136 16.914 92.8516 16.122 92.8516 14.826C92.8516 14.25 93.0076 13.752 93.3196 13.332C93.6436 12.912 94.0876 12.588 94.6516 12.36C95.2156 12.132 95.8636 12.018 96.5956 12.018C97.6516 12.018 98.5936 12.252 99.4216 12.72C99.6496 12.84 99.7816 13.008 99.8176 13.224C99.8656 13.428 99.8416 13.626 99.7456 13.818C99.6616 13.998 99.5236 14.13 99.3316 14.214C99.1396 14.286 98.9176 14.262 98.6656 14.142C98.2936 13.95 97.9336 13.812 97.5856 13.728C97.2496 13.644 96.9256 13.602 96.6136 13.602C96.0256 13.602 95.5876 13.704 95.2996 13.908C95.0236 14.112 94.8856 14.382 94.8856 14.718C94.8856 15.246 95.2276 15.57 95.9116 15.69L97.7116 16.032C98.4916 16.176 99.0796 16.44 99.4756 16.824C99.8836 17.208 100.088 17.724 100.088 18.372C100.088 19.248 99.7456 19.938 99.0616 20.442C98.3776 20.934 97.4656 21.18 96.3256 21.18Z" fill="#00730C"/>
<defs>
<clipPath id="clip0_673_46936">
<rect width="30" height="30" fill="white" transform="translate(0.5)"/>
</clipPath>
</defs>
</svg>
