<svg width="101" height="30" viewBox="0 0 101 30" fill="none" xmlns="http://www.w3.org/2000/svg">
<g clip-path="url(#clip0_673_46932)">
<g filter="url(#filter0_d_673_46932)">
<path d="M16.7578 8.84766C17.2432 8.84766 17.6367 8.45416 17.6367 7.96875C17.6367 7.48334 17.2432 7.08984 16.7578 7.08984C16.2724 7.08984 15.8789 7.48334 15.8789 7.96875C15.8789 8.45416 16.2724 8.84766 16.7578 8.84766Z" fill="white"/>
<path d="M20.2734 8.84766C20.7588 8.84766 21.1523 8.45416 21.1523 7.96875C21.1523 7.48334 20.7588 7.08984 20.2734 7.08984C19.788 7.08984 19.3945 7.48334 19.3945 7.96875C19.3945 8.45416 19.788 8.84766 20.2734 8.84766Z" fill="white"/>
<path d="M23.7891 8.84766C24.2745 8.84766 24.668 8.45416 24.668 7.96875C24.668 7.48334 24.2745 7.08984 23.7891 7.08984C23.3037 7.08984 22.9102 7.48334 22.9102 7.96875C22.9102 8.45416 23.3037 8.84766 23.7891 8.84766Z" fill="white"/>
<path d="M19.7586 28.1836C21.2055 28.1836 22.3828 27.0008 22.3828 25.5469V22.0312C22.3828 21.6531 22.141 21.3175 21.7825 21.1976L16.5215 19.4398C16.2639 19.3538 15.9813 19.3916 15.7554 19.5421L13.5182 21.0336C11.1171 19.8943 8.27924 17.0816 7.15049 14.7232L8.64147 12.4867C8.79199 12.2609 8.82979 11.9781 8.74377 11.7207L6.98596 6.45973C6.86613 6.10113 6.53045 5.85938 6.15234 5.85938H2.63672C1.18283 5.85938 0 7.03658 0 8.48361C0 13.3397 2.20805 18.3236 6.05801 22.1575C9.90375 25.9871 14.8975 28.1836 19.7586 28.1836ZM2.63672 7.61719H5.51936L6.94025 11.8697L5.42109 14.1484C5.26055 14.3892 5.22885 14.6936 5.33637 14.9623C5.92084 16.4235 7.09049 18.0669 8.6298 19.5898C10.159 21.1026 11.8104 22.2595 13.2799 22.8472C13.5485 22.9547 13.853 22.923 14.0938 22.7625L16.3726 21.2433L20.625 22.6642V25.5469C20.625 26.0397 20.2444 26.4258 19.7586 26.4258C10.5059 26.4258 1.75781 17.7062 1.75781 8.48361C1.75781 7.99775 2.14389 7.61719 2.63672 7.61719Z" fill="white"/>
<path d="M16.4215 17.5698C16.7498 17.7059 17.1279 17.6306 17.3793 17.3793L20.6375 14.1211H23.7891C27.2138 14.1211 30 11.3612 30 7.96875C30 4.57635 27.2138 1.81641 23.7891 1.81641H16.7578C13.3654 1.81641 10.6055 4.57635 10.6055 7.96875C10.6055 11.0628 12.9013 13.6307 15.8789 14.0585V16.7578C15.8789 17.1133 16.0931 17.4337 16.4215 17.5698ZM12.3633 7.96875C12.3633 5.54561 14.3347 3.57422 16.7578 3.57422H23.7891C26.2445 3.57422 28.2422 5.54561 28.2422 7.96875C28.2422 10.3919 26.2445 12.3633 23.7891 12.3633H20.2734C20.0403 12.3633 19.8168 12.4559 19.652 12.6207L17.6367 14.636V13.2422C17.6367 12.7568 17.2432 12.3633 16.7578 12.3633C14.3347 12.3633 12.3633 10.3919 12.3633 7.96875Z" fill="white"/>
</g>
</g>
<path d="M47.29 21.18C45.97 21.18 44.836 20.916 43.888 20.388C42.952 19.848 42.232 19.092 41.728 18.12C41.224 17.136 40.972 15.978 40.972 14.646C40.972 13.314 41.224 12.162 41.728 11.19C42.232 10.218 42.952 9.468 43.888 8.94C44.836 8.4 45.97 8.13 47.29 8.13C47.95 8.13 48.598 8.214 49.234 8.382C49.87 8.55 50.428 8.79 50.908 9.102C51.22 9.306 51.406 9.552 51.466 9.84C51.526 10.116 51.49 10.374 51.358 10.614C51.226 10.842 51.028 10.998 50.764 11.082C50.5 11.154 50.206 11.082 49.882 10.866C49.51 10.626 49.108 10.452 48.676 10.344C48.244 10.236 47.806 10.182 47.362 10.182C46.078 10.182 45.1 10.572 44.428 11.352C43.756 12.12 43.42 13.218 43.42 14.646C43.42 16.074 43.756 17.178 44.428 17.958C45.1 18.738 46.078 19.128 47.362 19.128C47.818 19.128 48.268 19.074 48.712 18.966C49.156 18.846 49.576 18.666 49.972 18.426C50.296 18.222 50.584 18.156 50.836 18.228C51.088 18.3 51.274 18.45 51.394 18.678C51.526 18.894 51.568 19.134 51.52 19.398C51.472 19.662 51.31 19.896 51.034 20.1C50.554 20.448 49.978 20.718 49.306 20.91C48.646 21.09 47.974 21.18 47.29 21.18ZM55.986 21.18C55.35 21.18 54.78 21.06 54.276 20.82C53.784 20.568 53.394 20.232 53.106 19.812C52.83 19.392 52.692 18.918 52.692 18.39C52.692 17.742 52.86 17.232 53.196 16.86C53.532 16.476 54.078 16.2 54.834 16.032C55.59 15.864 56.604 15.78 57.876 15.78H58.506V15.402C58.506 14.802 58.374 14.37 58.11 14.106C57.846 13.842 57.402 13.71 56.778 13.71C56.43 13.71 56.052 13.752 55.644 13.836C55.248 13.92 54.828 14.064 54.384 14.268C54.096 14.4 53.856 14.418 53.664 14.322C53.472 14.214 53.34 14.052 53.268 13.836C53.208 13.608 53.22 13.38 53.304 13.152C53.4 12.924 53.586 12.756 53.862 12.648C54.414 12.42 54.942 12.258 55.446 12.162C55.962 12.066 56.43 12.018 56.85 12.018C58.134 12.018 59.088 12.318 59.712 12.918C60.336 13.506 60.648 14.424 60.648 15.672V19.992C60.648 20.76 60.3 21.144 59.604 21.144C58.896 21.144 58.542 20.76 58.542 19.992V19.596C58.338 20.088 58.014 20.478 57.57 20.766C57.126 21.042 56.598 21.18 55.986 21.18ZM56.454 19.632C57.042 19.632 57.528 19.428 57.912 19.02C58.308 18.612 58.506 18.096 58.506 17.472V17.076H57.894C56.766 17.076 55.98 17.166 55.536 17.346C55.104 17.514 54.888 17.826 54.888 18.282C54.888 18.678 55.026 19.002 55.302 19.254C55.578 19.506 55.962 19.632 56.454 19.632ZM65.9377 21.18C63.9337 21.18 62.9317 20.058 62.9317 17.814V9.3C62.9317 8.544 63.3037 8.166 64.0477 8.166C64.8037 8.166 65.1817 8.544 65.1817 9.3V17.706C65.1817 18.786 65.6317 19.326 66.5317 19.326C66.6277 19.326 66.7177 19.326 66.8017 19.326C66.8857 19.314 66.9697 19.302 67.0537 19.29C67.2217 19.266 67.3357 19.314 67.3957 19.434C67.4557 19.542 67.4857 19.77 67.4857 20.118C67.4857 20.418 67.4257 20.652 67.3057 20.82C67.1857 20.988 66.9877 21.09 66.7117 21.126C66.4597 21.162 66.2017 21.18 65.9377 21.18ZM71.6858 21.18C69.6818 21.18 68.6798 20.058 68.6798 17.814V9.3C68.6798 8.544 69.0518 8.166 69.7958 8.166C70.5518 8.166 70.9298 8.544 70.9298 9.3V17.706C70.9298 18.786 71.3798 19.326 72.2798 19.326C72.3758 19.326 72.4658 19.326 72.5498 19.326C72.6338 19.314 72.7178 19.302 72.8018 19.29C72.9698 19.266 73.0838 19.314 73.1438 19.434C73.2038 19.542 73.2338 19.77 73.2338 20.118C73.2338 20.418 73.1738 20.652 73.0538 20.82C72.9338 20.988 72.7358 21.09 72.4598 21.126C72.2078 21.162 71.9498 21.18 71.6858 21.18ZM84.8045 21.18C83.0645 21.18 81.7325 20.73 80.8085 19.83C79.8965 18.918 79.4405 17.574 79.4405 15.798V9.336C79.4405 8.556 79.8245 8.166 80.5925 8.166C81.3605 8.166 81.7445 8.556 81.7445 9.336V15.78C81.7445 16.92 82.0025 17.778 82.5185 18.354C83.0465 18.918 83.8085 19.2 84.8045 19.2C86.8325 19.2 87.8465 18.06 87.8465 15.78V9.336C87.8465 8.556 88.2305 8.166 88.9985 8.166C89.7545 8.166 90.1325 8.556 90.1325 9.336V15.798C90.1325 17.574 89.6825 18.918 88.7825 19.83C87.8825 20.73 86.5565 21.18 84.8045 21.18ZM95.8256 21.18C95.3096 21.18 94.7636 21.126 94.1876 21.018C93.6116 20.91 93.0956 20.724 92.6396 20.46C92.3876 20.316 92.2316 20.142 92.1716 19.938C92.1116 19.722 92.1176 19.524 92.1896 19.344C92.2736 19.152 92.4056 19.014 92.5856 18.93C92.7776 18.846 92.9996 18.864 93.2516 18.984C93.7316 19.212 94.1816 19.374 94.6016 19.47C95.0216 19.554 95.4356 19.596 95.8436 19.596C96.4196 19.596 96.8456 19.5 97.1216 19.308C97.4096 19.104 97.5536 18.84 97.5536 18.516C97.5536 18.012 97.1816 17.688 96.4376 17.544L94.6376 17.202C93.1136 16.914 92.3516 16.122 92.3516 14.826C92.3516 14.25 92.5076 13.752 92.8196 13.332C93.1436 12.912 93.5876 12.588 94.1516 12.36C94.7156 12.132 95.3636 12.018 96.0956 12.018C97.1516 12.018 98.0936 12.252 98.9216 12.72C99.1496 12.84 99.2816 13.008 99.3176 13.224C99.3656 13.428 99.3416 13.626 99.2456 13.818C99.1616 13.998 99.0236 14.13 98.8316 14.214C98.6396 14.286 98.4176 14.262 98.1656 14.142C97.7936 13.95 97.4336 13.812 97.0856 13.728C96.7496 13.644 96.4256 13.602 96.1136 13.602C95.5256 13.602 95.0876 13.704 94.7996 13.908C94.5236 14.112 94.3856 14.382 94.3856 14.718C94.3856 15.246 94.7276 15.57 95.4116 15.69L97.2116 16.032C97.9916 16.176 98.5796 16.44 98.9756 16.824C99.3836 17.208 99.5876 17.724 99.5876 18.372C99.5876 19.248 99.2456 19.938 98.5616 20.442C97.8776 20.934 96.9656 21.18 95.8256 21.18Z" fill="white"/>
<defs>
<filter id="filter0_d_673_46932" x="-15" y="-15.1836" width="66" height="62.3672" filterUnits="userSpaceOnUse" color-interpolation-filters="sRGB">
<feFlood flood-opacity="0" result="BackgroundImageFix"/>
<feColorMatrix in="SourceAlpha" type="matrix" values="0 0 0 0 0 0 0 0 0 0 0 0 0 0 0 0 0 0 127 0" result="hardAlpha"/>
<feOffset dx="3" dy="1"/>
<feGaussianBlur stdDeviation="9"/>
<feComposite in2="hardAlpha" operator="out"/>
<feColorMatrix type="matrix" values="0 0 0 0 0 0 0 0 0 0 0 0 0 0 0 0 0 0 0.2 0"/>
<feBlend mode="normal" in2="BackgroundImageFix" result="effect1_dropShadow_673_46932"/>
<feBlend mode="normal" in="SourceGraphic" in2="effect1_dropShadow_673_46932" result="shape"/>
</filter>
<clipPath id="clip0_673_46932">
<rect width="30" height="30" fill="white"/>
</clipPath>
</defs>
</svg>
