<svg width="77" height="20" viewBox="0 0 77 20" fill="none" xmlns="http://www.w3.org/2000/svg">
<path d="M11.1719 5.89844C11.4955 5.89844 11.7578 5.6361 11.7578 5.3125C11.7578 4.9889 11.4955 4.72656 11.1719 4.72656C10.8483 4.72656 10.5859 4.9889 10.5859 5.3125C10.5859 5.6361 10.8483 5.89844 11.1719 5.89844Z" fill="#00730C"/>
<path d="M13.5156 5.89844C13.8392 5.89844 14.1016 5.6361 14.1016 5.3125C14.1016 4.9889 13.8392 4.72656 13.5156 4.72656C13.192 4.72656 12.9297 4.9889 12.9297 5.3125C12.9297 5.6361 13.192 5.89844 13.5156 5.89844Z" fill="#00730C"/>
<path d="M15.8594 5.89844C16.183 5.89844 16.4453 5.6361 16.4453 5.3125C16.4453 4.9889 16.183 4.72656 15.8594 4.72656C15.5358 4.72656 15.2734 4.9889 15.2734 5.3125C15.2734 5.6361 15.5358 5.89844 15.8594 5.89844Z" fill="#00730C"/>
<path d="M13.1724 18.7891C14.137 18.7891 14.9219 18.0005 14.9219 17.0312V14.6875C14.9219 14.4354 14.7607 14.2116 14.5216 14.1318L11.0143 12.9599C10.8426 12.9025 10.6542 12.9277 10.5036 13.0281L9.01211 14.0224C7.41141 13.2629 5.51949 11.3877 4.76699 9.81547L5.76098 8.32449C5.86133 8.17394 5.88652 7.98543 5.82918 7.81379L4.6573 4.30648C4.57742 4.06742 4.35363 3.90625 4.10156 3.90625H1.75781C0.788555 3.90625 0 4.69105 0 5.65574C0 8.89313 1.47203 12.2157 4.03867 14.7716C6.6025 17.3248 9.93164 18.7891 13.1724 18.7891ZM1.75781 5.07812H3.67957L4.62684 7.91313L3.61406 9.43227C3.50703 9.59281 3.4859 9.79574 3.55758 9.97488C3.94723 10.949 4.72699 12.0446 5.7532 13.0598C6.77266 14.0684 7.87359 14.8396 8.85324 15.2315C9.03234 15.3031 9.23535 15.282 9.39586 15.175L10.915 14.1622L13.75 15.1095V17.0312C13.75 17.3598 13.4963 17.6172 13.1724 17.6172C7.00391 17.6172 1.17188 11.8041 1.17188 5.65574C1.17188 5.33184 1.42926 5.07812 1.75781 5.07812Z" fill="#00730C"/>
<path d="M10.9477 11.7132C11.1666 11.8039 11.4186 11.7537 11.5862 11.5862L13.7583 9.41406H15.8594C18.1425 9.41406 20 7.5741 20 5.3125C20 3.0509 18.1425 1.21094 15.8594 1.21094H11.1719C8.91027 1.21094 7.07031 3.0509 7.07031 5.3125C7.07031 7.3752 8.6009 9.08715 10.5859 9.37234V11.1719C10.5859 11.4089 10.7287 11.6225 10.9477 11.7132ZM8.24219 5.3125C8.24219 3.69707 9.55645 2.38281 11.1719 2.38281H15.8594C17.4963 2.38281 18.8281 3.69707 18.8281 5.3125C18.8281 6.92793 17.4963 8.24219 15.8594 8.24219H13.5156C13.3602 8.24219 13.2112 8.30391 13.1013 8.41379L11.7578 9.75731V8.82812C11.7578 8.50453 11.4955 8.24219 11.1719 8.24219C9.55645 8.24219 8.24219 6.92793 8.24219 5.3125Z" fill="#00730C"/>
<path d="M35.67 14.64C34.6433 14.64 33.7613 14.4347 33.024 14.024C32.296 13.604 31.736 13.016 31.344 12.26C30.952 11.4947 30.756 10.594 30.756 9.558C30.756 8.522 30.952 7.626 31.344 6.87C31.736 6.114 32.296 5.53067 33.024 5.12C33.7613 4.7 34.6433 4.49 35.67 4.49C36.1833 4.49 36.6873 4.55533 37.182 4.686C37.6767 4.81667 38.1107 5.00333 38.484 5.246C38.7267 5.40467 38.8713 5.596 38.918 5.82C38.9647 6.03467 38.9367 6.23533 38.834 6.422C38.7313 6.59933 38.5773 6.72067 38.372 6.786C38.1667 6.842 37.938 6.786 37.686 6.618C37.3967 6.43133 37.084 6.296 36.748 6.212C36.412 6.128 36.0713 6.086 35.726 6.086C34.7273 6.086 33.9667 6.38933 33.444 6.996C32.9213 7.59333 32.66 8.44733 32.66 9.558C32.66 10.6687 32.9213 11.5273 33.444 12.134C33.9667 12.7407 34.7273 13.044 35.726 13.044C36.0807 13.044 36.4307 13.002 36.776 12.918C37.1213 12.8247 37.448 12.6847 37.756 12.498C38.008 12.3393 38.232 12.288 38.428 12.344C38.624 12.4 38.7687 12.5167 38.862 12.694C38.9647 12.862 38.9973 13.0487 38.96 13.254C38.9227 13.4593 38.7967 13.6413 38.582 13.8C38.2087 14.0707 37.7607 14.2807 37.238 14.43C36.7247 14.57 36.202 14.64 35.67 14.64ZM42.4335 14.64C41.9389 14.64 41.4955 14.5467 41.1035 14.36C40.7209 14.164 40.4175 13.9027 40.1935 13.576C39.9789 13.2493 39.8715 12.8807 39.8715 12.47C39.8715 11.966 40.0022 11.5693 40.2635 11.28C40.5249 10.9813 40.9495 10.7667 41.5375 10.636C42.1255 10.5053 42.9142 10.44 43.9035 10.44H44.3935V10.146C44.3935 9.67933 44.2909 9.34333 44.0855 9.138C43.8802 8.93267 43.5349 8.83 43.0495 8.83C42.7789 8.83 42.4849 8.86267 42.1675 8.928C41.8595 8.99333 41.5329 9.10533 41.1875 9.264C40.9635 9.36667 40.7769 9.38067 40.6275 9.306C40.4782 9.222 40.3755 9.096 40.3195 8.928C40.2729 8.75067 40.2822 8.57333 40.3475 8.396C40.4222 8.21867 40.5669 8.088 40.7815 8.004C41.2109 7.82667 41.6215 7.70067 42.0135 7.626C42.4149 7.55133 42.7789 7.514 43.1055 7.514C44.1042 7.514 44.8462 7.74733 45.3315 8.214C45.8169 8.67133 46.0595 9.38533 46.0595 10.356V13.716C46.0595 14.3133 45.7889 14.612 45.2475 14.612C44.6969 14.612 44.4215 14.3133 44.4215 13.716V13.408C44.2629 13.7907 44.0109 14.094 43.6655 14.318C43.3202 14.5327 42.9095 14.64 42.4335 14.64ZM42.7975 13.436C43.2549 13.436 43.6329 13.2773 43.9315 12.96C44.2395 12.6427 44.3935 12.2413 44.3935 11.756V11.448H43.9175C43.0402 11.448 42.4289 11.518 42.0835 11.658C41.7475 11.7887 41.5795 12.0313 41.5795 12.386C41.5795 12.694 41.6869 12.946 41.9015 13.142C42.1162 13.338 42.4149 13.436 42.7975 13.436ZM50.1738 14.64C48.6151 14.64 47.8358 13.7673 47.8358 12.022V5.4C47.8358 4.812 48.1251 4.518 48.7038 4.518C49.2918 4.518 49.5858 4.812 49.5858 5.4V11.938C49.5858 12.778 49.9358 13.198 50.6358 13.198C50.7104 13.198 50.7804 13.198 50.8458 13.198C50.9111 13.1887 50.9764 13.1793 51.0418 13.17C51.1724 13.1513 51.2611 13.1887 51.3078 13.282C51.3544 13.366 51.3778 13.5433 51.3778 13.814C51.3778 14.0473 51.3311 14.2293 51.2378 14.36C51.1444 14.4907 50.9904 14.57 50.7758 14.598C50.5798 14.626 50.3791 14.64 50.1738 14.64ZM54.6445 14.64C53.0858 14.64 52.3065 13.7673 52.3065 12.022V5.4C52.3065 4.812 52.5958 4.518 53.1745 4.518C53.7625 4.518 54.0565 4.812 54.0565 5.4V11.938C54.0565 12.778 54.4065 13.198 55.1065 13.198C55.1812 13.198 55.2512 13.198 55.3165 13.198C55.3818 13.1887 55.4472 13.1793 55.5125 13.17C55.6432 13.1513 55.7318 13.1887 55.7785 13.282C55.8252 13.366 55.8485 13.5433 55.8485 13.814C55.8485 14.0473 55.8018 14.2293 55.7085 14.36C55.6152 14.4907 55.4612 14.57 55.2465 14.598C55.0505 14.626 54.8498 14.64 54.6445 14.64ZM64.848 14.64C63.4946 14.64 62.4586 14.29 61.74 13.59C61.0306 12.8807 60.676 11.8353 60.676 10.454V5.428C60.676 4.82133 60.9746 4.518 61.572 4.518C62.1693 4.518 62.468 4.82133 62.468 5.428V10.44C62.468 11.3267 62.6686 11.994 63.07 12.442C63.4806 12.8807 64.0733 13.1 64.848 13.1C66.4253 13.1 67.214 12.2133 67.214 10.44V5.428C67.214 4.82133 67.5126 4.518 68.11 4.518C68.698 4.518 68.992 4.82133 68.992 5.428V10.454C68.992 11.8353 68.642 12.8807 67.942 13.59C67.242 14.29 66.2106 14.64 64.848 14.64ZM73.4199 14.64C73.0186 14.64 72.5939 14.598 72.1459 14.514C71.6979 14.43 71.2966 14.2853 70.9419 14.08C70.7459 13.968 70.6246 13.8327 70.5779 13.674C70.5312 13.506 70.5359 13.352 70.5919 13.212C70.6572 13.0627 70.7599 12.9553 70.8999 12.89C71.0492 12.8247 71.2219 12.8387 71.4179 12.932C71.7912 13.1093 72.1412 13.2353 72.4679 13.31C72.7946 13.3753 73.1166 13.408 73.4339 13.408C73.8819 13.408 74.2132 13.3333 74.4279 13.184C74.6519 13.0253 74.7639 12.82 74.7639 12.568C74.7639 12.176 74.4746 11.924 73.8959 11.812L72.4959 11.546C71.3106 11.322 70.7179 10.706 70.7179 9.698C70.7179 9.25 70.8392 8.86267 71.0819 8.536C71.3339 8.20933 71.6792 7.95733 72.1179 7.78C72.5566 7.60267 73.0606 7.514 73.6299 7.514C74.4512 7.514 75.1839 7.696 75.8279 8.06C76.0052 8.15333 76.1079 8.284 76.1359 8.452C76.1732 8.61067 76.1546 8.76467 76.0799 8.914C76.0146 9.054 75.9072 9.15667 75.7579 9.222C75.6086 9.278 75.4359 9.25933 75.2399 9.166C74.9506 9.01667 74.6706 8.90933 74.3999 8.844C74.1386 8.77867 73.8866 8.746 73.6439 8.746C73.1866 8.746 72.8459 8.82533 72.6219 8.984C72.4072 9.14267 72.2999 9.35267 72.2999 9.614C72.2999 10.0247 72.5659 10.2767 73.0979 10.37L74.4979 10.636C75.1046 10.748 75.5619 10.9533 75.8699 11.252C76.1872 11.5507 76.3459 11.952 76.3459 12.456C76.3459 13.1373 76.0799 13.674 75.5479 14.066C75.0159 14.4487 74.3066 14.64 73.4199 14.64Z" fill="#00730C"/>
</svg>
