<svg width="30" height="30" viewBox="0 0 30 30" fill="none" xmlns="http://www.w3.org/2000/svg">
<path d="M3.7146 4.82746C3.22673 5.31532 3.25912 6.13828 3.71655 6.59571L12.3058 15.185L14.0736 13.4172L5.48432 4.82794C5.02696 4.37058 4.20253 4.33952 3.7146 4.82746Z" fill="#00730C"/>
<path d="M24.9983 26.1112C25.4862 25.6233 25.4976 24.8413 25.0402 24.3838L16.7718 16.1154L15.0041 17.8832L23.2724 26.1516C23.7298 26.609 24.5105 26.599 24.9983 26.1112Z" fill="#00730C"/>
<path d="M25.3832 6.61447L5.82732 26.1704C5.36989 26.6278 4.48862 26.7195 4.00076 26.2316C3.5129 25.7437 3.60219 24.86 4.05955 24.4026C4.51691 23.9452 23.6154 4.84671 23.6154 4.84671C24.0729 4.38928 25.0108 4.24433 25.4987 4.7322C25.9866 5.22006 25.8406 6.15704 25.3832 6.61447Z" fill="#00730C"/>
</svg>
