<svg width="70" height="68" viewBox="0 0 70 68" fill="none" xmlns="http://www.w3.org/2000/svg">
<path d="M66.0821 17.0837V8.49345C66.083 6.74692 65.3994 5.06973 64.1781 3.82221L61.8775 1.5195C61.0763 0.696038 59.9767 0.23117 58.8283 0.230469H58.8184C57.6664 0.230118 56.5626 0.694051 55.7562 1.51751L52.3032 5.00951L50.5697 3.49296C50.1807 3.14431 49.6764 2.95245 49.1543 2.9542C48.5816 2.95724 48.0333 3.18675 47.6291 3.59269L47.4228 3.79917L46.7311 3.10082C45.3638 1.71405 43.4982 0.933383 41.5517 0.933383C39.6051 0.933383 37.7394 1.71405 36.3721 3.10082C33.5232 5.99864 33.5232 10.648 36.3721 13.5457L37.0799 14.2621L37.043 14.299C36.1955 15.1633 36.1955 16.5476 37.043 17.4119L54.1782 34.741C54.3844 34.9512 54.6663 35.0696 54.9607 35.0696C55.2551 35.0696 55.5371 34.9512 55.7433 34.741L69.0507 21.2919C69.2706 21.0656 69.3893 20.7595 69.3796 20.4439C69.3705 20.1287 69.2294 19.8319 68.9909 19.6258L66.0821 17.0837ZM38.4784 12.8385L37.7866 12.1401C35.703 10.0218 35.703 6.62205 37.7866 4.50372C38.7794 3.49589 40.1345 2.92848 41.5486 2.92848C42.9627 2.92848 44.3178 3.49589 45.3106 4.50372L46.0224 5.21903L38.4784 12.8385ZM64.0884 15.3277L53.8093 6.32637L57.1735 2.92415C57.6055 2.47869 58.199 2.22685 58.8193 2.2258C59.4369 2.22826 60.0274 2.4801 60.457 2.92415L62.7617 5.23388C63.6117 6.10527 64.0866 7.27551 64.0845 8.49333L64.0884 15.3277Z" fill="white"/>
<path fill-rule="evenodd" clip-rule="evenodd" d="M34.449 27.1262V31.2597H49.2876L43.4852 25.405L34.449 27.1262Z" fill="white"/>
<path fill-rule="evenodd" clip-rule="evenodd" d="M26.6255 23.6969V35.7776C26.6162 36.0583 26.785 36.3144 27.0466 36.4165C27.2916 36.5259 27.5788 36.4672 27.7611 36.2704L31.8411 32.0417V26.6516L27.8485 23.2927C27.7058 23.1266 27.5014 23.0262 27.2827 23.0149C27.2016 23.015 27.1213 23.0314 27.0466 23.0632C26.7868 23.1646 26.6185 23.4181 26.6255 23.6969Z" fill="white"/>
<path fill-rule="evenodd" clip-rule="evenodd" d="M20.1059 33.8674C17.9455 33.8674 16.1941 35.6189 16.1941 37.7792V40.3871C16.1941 41.1073 16.778 41.691 17.498 41.691C18.2181 41.691 18.8018 41.1073 18.8018 40.3871V37.7792C18.8018 37.059 19.3857 36.4753 20.1057 36.4753C20.8259 36.4753 21.4096 35.8916 21.4096 35.1715C21.4096 34.4513 20.826 33.8674 20.1059 33.8674Z" fill="white"/>
<path fill-rule="evenodd" clip-rule="evenodd" d="M20.1059 28.6519C15.0676 28.6583 10.9849 32.741 10.9785 37.7793V40.3871C10.9785 41.1073 11.5622 41.691 12.2823 41.691C13.0025 41.691 13.5862 41.1073 13.5862 40.3871V37.7793C13.5905 34.1804 16.5069 31.264 20.1059 31.2596C20.826 31.2596 21.4097 30.6759 21.4097 29.9557C21.4097 29.2356 20.826 28.6519 20.1059 28.6519Z" fill="white"/>
<path fill-rule="evenodd" clip-rule="evenodd" d="M20.1058 23.4363C12.1882 23.4456 5.77196 29.8618 5.76263 37.7795V40.3872C5.76263 41.1074 6.3465 41.6911 7.0665 41.6911C7.78651 41.6911 8.37037 41.1074 8.37037 40.3872V37.7793C8.37756 31.3011 13.6274 26.0512 20.1057 26.044C20.8258 26.044 21.4095 25.4602 21.4095 24.7401C21.4097 24.02 20.826 23.4363 20.1058 23.4363Z" fill="white"/>
<path fill-rule="evenodd" clip-rule="evenodd" d="M44.8803 66.4655C44.8803 65.7453 44.2966 65.1616 43.5764 65.1616H24.0176V61.7061C24.2742 61.3826 24.5485 61.0736 24.8391 60.7803C25.1141 60.4857 25.4057 60.2069 25.7127 59.9458H33.145C38.1836 59.94 42.2668 55.8569 42.2724 50.8184V45.7461C39.8648 47.3568 37.0326 48.2146 34.1359 48.2105C29.6616 48.2134 25.8276 51.4113 25.0215 55.8123L24.7477 57.3509C24.0198 57.9205 23.3395 58.5484 22.7136 59.2285C22.0877 58.5484 21.4074 57.9205 20.6795 57.3509L20.4057 55.8123C19.5996 51.4111 15.7656 48.2134 11.2912 48.2105C8.39455 48.2146 5.56234 47.3568 3.15477 45.7461V50.8184C3.16058 55.8569 7.24363 59.9401 12.2822 59.9458H19.7145C20.3312 60.4805 20.8986 61.0697 21.4096 61.7061V65.1614H1.85075C1.13058 65.1614 0.546875 65.7453 0.546875 66.4653C0.546875 67.1853 1.13074 67.7693 1.8509 67.7693H43.5764C44.2966 67.7693 44.8803 67.1856 44.8803 66.4655Z" fill="white"/>
</svg>
